<?xml version="1.0" standalone="no"?>
<!DOCTYPE svg PUBLIC "-//W3C//DTD SVG 20010904//EN"
 "http://www.w3.org/TR/2001/REC-SVG-20010904/DTD/svg10.dtd">
<svg version="1.0" xmlns="http://www.w3.org/2000/svg"
 width="304.000000pt" height="260.000000pt" viewBox="0 0 304.000000 260.000000"
 preserveAspectRatio="xMidYMid meet">

<g transform="translate(0.000000,260.000000) scale(0.100000,-0.100000)"
fill="#000000" stroke="none">
<path d="M579 2427 c-29 -16 -54 -40 -74 -72 -28 -46 -30 -54 -30 -151 0 -95
2 -104 24 -128 33 -35 88 -36 121 -1 18 19 25 40 28 88 7 107 -77 97 821 97
432 0 791 -4 798 -8 18 -12 33 -59 33 -108 0 -60 32 -94 89 -94 32 0 44 6 66
32 26 30 27 35 23 134 -3 95 -5 106 -33 146 -18 25 -49 52 -75 66 l-44 22
-852 0 -851 0 -44 -23z"/>
<path d="M1770 1848 c-49 -26 -50 -30 -50 -540 0 -329 3 -485 11 -501 21 -47
35 -48 354 -45 291 3 302 4 353 27 73 33 147 116 168 188 37 128 -14 254 -135
334 l-24 15 27 41 c108 162 53 369 -121 455 l-67 33 -246 3 c-186 2 -251 -1
-270 -10z m510 -167 c100 -53 103 -183 6 -255 -23 -18 -47 -22 -143 -26 -106
-5 -116 -7 -134 -29 -26 -32 -24 -74 5 -108 24 -28 24 -28 179 -33 137 -4 159
-7 183 -26 51 -38 69 -71 69 -129 0 -58 -18 -91 -69 -129 -25 -20 -43 -21
-257 -24 l-229 -3 0 390 0 391 178 0 c153 0 182 -2 212 -19z"/>
<path d="M539 1821 c-40 -40 -40 -89 0 -133 l29 -33 166 -4 166 -3 0 -415 0
-415 29 -29 c40 -40 89 -40 133 0 l33 29 3 415 3 415 160 4 161 3 29 33 c40
44 40 93 0 133 l-29 29 -427 0 -427 0 -29 -29z"/>
<path d="M316 557 c-43 -43 -44 -205 -2 -284 19 -37 64 -79 99 -92 19 -8 356
-11 1061 -11 l1032 0 44 23 c82 41 114 117 108 260 -3 79 -6 91 -27 108 -33
27 -86 25 -116 -6 -22 -21 -25 -33 -25 -90 0 -70 -16 -99 -62 -110 -13 -3
-452 -4 -976 -3 l-954 3 -24 28 c-20 23 -24 39 -24 93 0 51 -4 68 -20 84 -28
28 -84 27 -114 -3z"/>
</g>
</svg>
